<svg xmlns="http://www.w3.org/2000/svg" viewBox="0 0 75 75"><title>SOCIAL-ICONS</title><g id="_01-SINGLE-GREY" data-name="01-SINGLE-GREY"><path id="Facebook" d="M55.856,53.829a2.026,2.026,0,0,1-2.026,2.026H44.475V41.639h4.772l.714-5.54H44.475V32.561c0-1.6.445-2.7,2.746-2.7h2.934V24.907a39.206,39.206,0,0,0-4.275-.218c-4.23,0-7.126,2.582-7.126,7.324V36.1H33.969v5.54h4.784V55.856H21.171a2.026,2.026,0,0,1-2.026-2.026V21.171a2.026,2.026,0,0,1,2.026-2.026H53.83a2.026,2.026,0,0,1,2.026,2.026Z" fill="#69dde5"/></g></svg>