<svg xmlns="http://www.w3.org/2000/svg" viewBox="0 0 50 50"><title>SOCIAL-ICONS</title><g id="_01-SINGLE-GREY" data-name="01-SINGLE-GREY"><path id="Facebook" d="M40.6,38.876A1.722,1.722,0,0,1,38.876,40.6H30.927V28.517h4.055l.607-4.708H30.927V20.8c0-1.363.378-2.292,2.333-2.292h2.493V14.3a33.316,33.316,0,0,0-3.633-.186c-3.594,0-6.055,2.194-6.055,6.223v3.472H22v4.708h4.065V40.6H11.124A1.722,1.722,0,0,1,9.4,38.876V11.124A1.722,1.722,0,0,1,11.124,9.4H38.876A1.722,1.722,0,0,1,40.6,11.124Z" fill="#69dde5"/></g></svg>