<svg xmlns="http://www.w3.org/2000/svg" viewBox="0 0 75 75"><title>SOCIAL-ICONS</title><g id="_01-SINGLE-GREY" data-name="01-SINGLE-GREY"><g id="Google_" data-name="Google+"><path d="M35.9,34.958v5.085s4.924-.007,6.929-.007c-1.086,3.3-2.774,5.092-6.929,5.092a7.629,7.629,0,0,1,0-15.255,7.254,7.254,0,0,1,4.976,1.874c1.054-1.056.966-1.207,3.648-3.744A12.829,12.829,0,1,0,35.9,50.34c10.58,0,13.166-9.229,12.309-15.382Z" fill="#69dde5"/><polygon points="58.995 35.212 58.995 30.762 55.823 30.762 55.823 35.212 51.254 35.212 51.254 38.39 55.823 38.39 55.823 42.966 58.995 42.966 58.995 38.39 63.437 38.39 63.437 35.212 58.995 35.212" fill="#69dde5"/></g></g></svg>