<svg xmlns="http://www.w3.org/2000/svg" viewBox="0 0 50 50"><title>SOCIAL-ICONS</title><g id="_01-SINGLE-GREY" data-name="01-SINGLE-GREY"><path id="Google_" data-name="Google+" d="M29.205,22.84c.729,5.228-1.469,13.071-10.459,13.071a10.91,10.91,0,1,1,7.329-18.981c-2.279,2.156-2.2,2.284-3.1,3.182a6.164,6.164,0,0,0-4.228-1.592,6.483,6.483,0,0,0,0,12.963c3.531,0,4.965-1.525,5.888-4.327-1.7,0-5.888.006-5.888.006V22.84Zm9.166.216V19.275h-2.7v3.781H31.793v2.7h3.882v3.889h2.7V25.756h3.774v-2.7Z" fill="#69dde5"/></g></svg>