<svg xmlns="http://www.w3.org/2000/svg" viewBox="0 0 50 50"><title>SOCIAL-ICONS</title><g id="_01-SINGLE-GREY" data-name="01-SINGLE-GREY"><path id="Instagram" d="M36.874,9.423H13.126a3.7,3.7,0,0,0-3.7,3.695V36.882a3.7,3.7,0,0,0,3.7,3.695H36.874a3.7,3.7,0,0,0,3.7-3.695V13.118A3.7,3.7,0,0,0,36.874,9.423Zm-5.059,4.868a.974.974,0,0,1,.974-.974h2.921a.974.974,0,0,1,.974.974v2.921a.974.974,0,0,1-.974.974H32.789a.974.974,0,0,1-.974-.974Zm-6.779,4.769a5.977,5.977,0,1,1-5.99,5.977A5.984,5.984,0,0,1,25.036,19.059Zm12.62,17.624a.974.974,0,0,1-.974.974H13.317a.974.974,0,0,1-.974-.974v-14.6h3.894a5.948,5.948,0,0,0-.679,2.957,9.477,9.477,0,0,0,18.955,0,4.985,4.985,0,0,0-.752-2.957h3.894Z" fill="#69dde5"/></g></svg>