<svg xmlns="http://www.w3.org/2000/svg" viewBox="0 0 75 75"><title>SOCIAL-ICONS</title><g id="_01-SINGLE-GREY" data-name="01-SINGLE-GREY"><path id="Instagram" d="M51.473,19.168H23.527a4.353,4.353,0,0,0-4.358,4.348V51.484a4.353,4.353,0,0,0,4.358,4.348H51.473a4.353,4.353,0,0,0,4.358-4.348V23.516A4.353,4.353,0,0,0,51.473,19.168ZM45.52,24.9a1.146,1.146,0,0,1,1.146-1.146H50.1A1.146,1.146,0,0,1,51.249,24.9v3.437A1.146,1.146,0,0,1,50.1,29.48H46.666a1.146,1.146,0,0,1-1.146-1.146Zm-7.978,5.612a7.034,7.034,0,1,1-7.05,7.034A7.042,7.042,0,0,1,37.542,30.509Zm14.852,20.74a1.146,1.146,0,0,1-1.146,1.146h-27.5a1.146,1.146,0,0,1-1.146-1.146V34.063h4.583a7,7,0,0,0-.8,3.479,11.153,11.153,0,0,0,22.306,0,5.866,5.866,0,0,0-.885-3.479h4.583Z" fill="#69dde5"/></g></svg>