<svg xmlns="http://www.w3.org/2000/svg" viewBox="0 0 75 75"><title>SOCIAL-ICONS</title><g id="_01-SINGLE-GREY" data-name="01-SINGLE-GREY"><path id="Twitter" d="M54.549,22.214a15.135,15.135,0,0,1-4.883,1.909,7.578,7.578,0,0,0-5.608-2.487,7.783,7.783,0,0,0-7.681,7.879,8.038,8.038,0,0,0,.2,1.794,21.633,21.633,0,0,1-15.839-8.235A8.023,8.023,0,0,0,19.7,27.04,7.931,7.931,0,0,0,23.114,33.6a7.544,7.544,0,0,1-3.482-.983v.1A7.834,7.834,0,0,0,25.8,40.438a7.326,7.326,0,0,1-2.025.277,7.467,7.467,0,0,1-1.447-.14A7.713,7.713,0,0,0,29.5,46.044a15.172,15.172,0,0,1-9.543,3.375,15.378,15.378,0,0,1-1.833-.108,21.394,21.394,0,0,0,11.779,3.537c14.136,0,21.863-12,21.863-22.417,0-.343-.007-.685-.02-1.021a15.774,15.774,0,0,0,3.832-4.078,15.011,15.011,0,0,1-4.412,1.24A7.862,7.862,0,0,0,54.549,22.214Z" fill="#69dde5"/></g></svg>