<svg xmlns="http://www.w3.org/2000/svg" viewBox="0 0 50 50"><title>SOCIAL-ICONS</title><g id="_01-SINGLE-GREY" data-name="01-SINGLE-GREY"><path id="Twitter" d="M40.035,12.23a12.861,12.861,0,0,1-4.149,1.623,6.439,6.439,0,0,0-4.765-2.113,6.614,6.614,0,0,0-6.527,6.7,6.83,6.83,0,0,0,.168,1.525,18.383,18.383,0,0,1-13.459-7,6.817,6.817,0,0,0-.884,3.37,6.739,6.739,0,0,0,2.9,5.573,6.41,6.41,0,0,1-2.959-.835v.082a6.657,6.657,0,0,0,5.24,6.565,6.225,6.225,0,0,1-1.72.236,6.345,6.345,0,0,1-1.229-.119,6.554,6.554,0,0,0,6.1,4.647,12.892,12.892,0,0,1-8.109,2.868,13.067,13.067,0,0,1-1.558-.092A18.179,18.179,0,0,0,19.1,38.261c12.012,0,18.578-10.2,18.578-19.049,0-.291-.006-.582-.017-.868a13.4,13.4,0,0,0,3.256-3.465,12.756,12.756,0,0,1-3.749,1.054A6.681,6.681,0,0,0,40.035,12.23Z" fill="#69dde5"/></g></svg>