<?xml version="1.0" encoding="utf-8"?>
<!-- Generator: Adobe Illustrator 22.1.0, SVG Export Plug-In . SVG Version: 6.00 Build 0)  -->
<svg version="1.1" id="Layer_1" xmlns="http://www.w3.org/2000/svg" xmlns:xlink="http://www.w3.org/1999/xlink" x="0px" y="0px"
	 viewBox="0 0 260 135" style="enable-background:new 0 0 260 135;" xml:space="preserve">
<style type="text/css">
	.st0{fill:#FFFFFF;}
</style>
<g>
	<path class="st0" d="M49.1,55l-11.5,0.1L37.3,2.6l11.5-0.1L48.9,24c0.4-0.8,1-1.6,1.8-2.3c0.7-0.8,1.6-1.4,2.6-2
		c1-0.6,2.1-1,3.2-1.3c1.1-0.3,2.3-0.5,3.5-0.5c2.6,0,5,0.5,7.2,1.4c2.2,1,4.1,2.3,5.6,3.9c1.6,1.7,2.8,3.7,3.6,6
		c0.9,2.3,1.3,4.8,1.3,7.5c0,2.7-0.4,5.2-1.2,7.5c-0.8,2.3-2,4.3-3.6,6c-1.5,1.7-3.4,3-5.6,4c-2.2,1-4.6,1.5-7.2,1.5
		c-1.2,0-2.4-0.1-3.5-0.5c-1.1-0.3-2.2-0.7-3.2-1.3c-1-0.5-1.9-1.1-2.6-1.9c-0.8-0.7-1.4-1.5-1.8-2.4L49.1,55z M57.7,46.1
		c1.3,0,2.4-0.3,3.4-0.8c1-0.5,1.9-1.2,2.7-2c0.7-0.8,1.3-1.8,1.7-2.9c0.4-1.1,0.6-2.3,0.6-3.6c0-1.3-0.2-2.4-0.7-3.5
		c-0.4-1.1-1-2.1-1.8-2.9c-0.8-0.8-1.7-1.5-2.7-2c-1.1-0.5-2.2-0.7-3.5-0.7c-1.3,0-2.5,0.3-3.6,0.8c-1.1,0.5-2,1.2-2.7,2
		c-0.7,0.9-1.3,1.8-1.7,2.9c-0.4,1.1-0.6,2.3-0.6,3.5c0,1.3,0.2,2.4,0.7,3.6c0.4,1.1,1,2.1,1.8,2.9c0.8,0.8,1.7,1.5,2.8,2
		C55.2,45.9,56.4,46.1,57.7,46.1z"/>
	<path class="st0" d="M91.5,42.3c0,1.1,0.2,2.1,0.4,3.1c0.3,1,0.7,1.8,1.3,2.6c0.6,0.7,1.4,1.3,2.4,1.8c1,0.4,2.2,0.7,3.7,0.7
		c2,0,3.5-0.4,4.6-1.1c1-0.8,1.8-1.8,2.2-2.9l11.3,0.2c-0.3,1.7-0.9,3.3-1.8,4.8c-0.9,1.5-2.2,2.8-3.7,3.9s-3.4,2-5.4,2.6
		c-2.1,0.6-4.4,0.9-7,0.9c-3.2,0-5.9-0.5-8.3-1.5c-2.4-1-4.4-2.3-6.1-4c-1.6-1.7-2.8-3.8-3.7-6.1c-0.8-2.3-1.2-4.9-1.2-7.7
		c0-2.7,0.5-5.1,1.3-7.4c0.9-2.3,2.1-4.3,3.8-6c1.6-1.7,3.7-3,6.1-4c2.4-1,5.2-1.4,8.3-1.4c2.9,0,5.4,0.5,7.7,1.5
		c2.3,0.9,4.2,2.2,5.8,3.7c1.6,1.5,2.8,3.3,3.7,5.3c0.8,2,1.3,4.1,1.2,6.3c0,0.8,0,1.6-0.1,2.4c0,0.9-0.2,1.8-0.4,2.9L91.5,42.3z
		 M99.4,28.2c-2.3,0-4.1,0.6-5.6,1.9c-1.5,1.3-2.2,3.1-2.3,5.6l15.2,0.2c0-2.4-0.6-4.2-2-5.6C103.4,28.9,101.6,28.2,99.4,28.2z"/>
	<path class="st0" d="M102.6,61l11.5,0.2l-0.1,5.3c1-1.9,2.6-3.4,4.6-4.4c2-1,4.5-1.5,7.3-1.5c2.4,0,4.4,0.5,6.1,1.2
		c1.7,0.8,3,1.8,4,3.1c1.1,1.4,1.9,3.1,2.2,4.9c0.3,1.8,0.5,4.1,0.4,6.7l-0.5,21.5l-11.5-0.2l0.4-18.5c0.1-2.6-0.4-4.7-1.3-6.4
		c-0.9-1.6-2.5-2.5-4.9-2.5c-2.4,0-4.1,0.7-5.3,2.4c-1.2,1.6-1.8,3.8-1.9,6.6l-0.4,18.2l-11.5-0.2L102.6,61z"/>
	<path class="st0" d="M210.8,99.7c-0.3,0.6-0.7,1.1-1.1,1.5c-1.2,1.4-2.7,2.3-4.5,3c-1.8,0.6-3.7,0.9-5.9,0.9
		c-2.1,0-4.4-0.3-6.7-0.8c-4.4-0.9-7.9-2.5-10.4-4.7H90.6c-0.8,0.5-1.6,0.9-2.5,1.3c-2.5,1-5.3,1.6-8.4,1.6c-3.1,0-5.9-0.5-8.4-1.5
		c-1-0.4-2-0.9-2.9-1.5H17.8v9H241v-9H210.8z"/>
	<path class="st0" d="M152.3,77.1c0.1,1.1,0.3,2.1,0.6,3.1c0.3,1,0.8,1.8,1.5,2.5c0.7,0.7,1.5,1.2,2.5,1.6c1,0.4,2.3,0.5,3.8,0.5
		c2-0.1,3.5-0.6,4.5-1.4c1-0.8,1.7-1.9,2-3l11.2-0.5c-0.2,1.7-0.7,3.3-1.5,4.9c-0.9,1.5-2,2.9-3.5,4.1c-1.5,1.2-3.2,2.2-5.3,2.9
		c-2,0.7-4.4,1.2-7,1.3c-3.1,0.1-6-0.2-8.4-1c-2.5-0.8-4.6-2-6.3-3.6c-1.7-1.6-3.1-3.6-4-5.9c-1-2.3-1.5-4.8-1.6-7.6
		c-0.1-2.6,0.2-5.1,0.9-7.5c0.7-2.3,1.8-4.4,3.4-6.2c1.5-1.8,3.5-3.3,5.8-4.4c2.3-1.1,5.1-1.7,8.2-1.9c2.8-0.1,5.4,0.2,7.7,1
		c2.3,0.8,4.3,1.9,6,3.3c1.7,1.4,3,3.1,4,5.1c1,2,1.5,4,1.6,6.2c0,0.7,0.1,1.6,0.1,2.4c0,0.9-0.1,1.8-0.2,2.9L152.3,77.1z
		 M159.4,62.6c-2.2,0.1-4.1,0.8-5.5,2.2c-1.4,1.4-2,3.3-1.9,5.7l15.1-0.7c-0.1-2.3-0.9-4.2-2.3-5.4C163.4,63,161.6,62.4,159.4,62.6z
		"/>
	<path class="st0" d="M79.6,98.2c-3.1,0-5.9-0.5-8.4-1.5c-2.5-1-4.6-2.4-6.3-4.1c-1.7-1.7-3.1-3.7-4-6c-0.9-2.3-1.4-4.7-1.5-7.3
		c0-2.6,0.4-5.1,1.3-7.4c0.9-2.3,2.2-4.3,3.9-6.1c1.7-1.7,3.8-3.1,6.3-4.2c2.5-1,5.2-1.6,8.4-1.6c3.2,0,6,0.5,8.5,1.5
		c2.5,1,4.6,2.4,6.3,4.1c1.7,1.7,3.1,3.7,4,6c0.9,2.3,1.4,4.7,1.5,7.3c0,2.6-0.4,5.1-1.3,7.4c-0.9,2.3-2.2,4.3-3.9,6.1
		c-1.7,1.7-3.8,3.1-6.3,4.2C85.6,97.6,82.8,98.1,79.6,98.2z M79.5,88.3c1.3,0,2.5-0.3,3.6-0.7c1.1-0.5,2-1.2,2.7-2
		c0.7-0.9,1.3-1.8,1.7-2.9c0.4-1.1,0.6-2.3,0.6-3.6c0-1.3-0.2-2.4-0.7-3.6c-0.4-1.1-1-2.1-1.8-2.9s-1.7-1.5-2.8-2
		c-1.1-0.5-2.3-0.7-3.6-0.7c-1.3,0-2.5,0.3-3.5,0.8c-1,0.5-1.9,1.2-2.7,2c-0.7,0.8-1.3,1.8-1.7,2.9c-0.4,1.1-0.6,2.3-0.6,3.6
		c0,1.3,0.2,2.5,0.6,3.6c0.4,1.1,1,2.1,1.8,2.9c0.8,0.8,1.7,1.5,2.7,2C77,88.1,78.2,88.4,79.5,88.3z"/>
	<path class="st0" d="M201.9,79.7c1.5,0.8,2.8,1.6,4.1,2.4c1.3,0.8,2.3,1.7,3.2,2.7c0.9,1,1.5,2.1,1.9,3.3c0.4,1.3,0.4,2.7,0,4.5
		c-0.4,2.1-1.2,3.8-2.4,5.1c-1.1,1.3-2.5,2.2-4.2,2.8c-1.7,0.6-3.5,0.9-5.5,0.9c-2,0-4.1-0.2-6.3-0.7c-5-1.1-8.8-3-11.2-5.8
		c-2.5-2.8-3.2-6.3-2.4-10.4l11,2.3c-0.4,1.9-0.1,3.3,0.7,4.3c0.9,1,2.2,1.7,3.8,2.1c1.4,0.3,2.5,0.3,3.5-0.1c1-0.3,1.6-1.1,1.8-2.3
		c0.1-0.7,0.1-1.3-0.2-1.8c-0.3-0.5-0.8-1-1.4-1.5c-0.7-0.5-1.6-1.1-2.7-1.7c-1.1-0.6-2.5-1.4-4-2.3c-1.4-0.7-2.7-1.5-3.9-2.3
		c-1.2-0.8-2.2-1.7-3.1-2.6c-0.9-0.9-1.5-2-1.8-3.3c-0.4-1.2-0.3-2.7,0-4.4c0.8-3.7,2.7-6.1,5.9-7.3c3.2-1.2,7.2-1.3,12-0.3
		c2.5,0.5,4.7,1.3,6.5,2.3c1.8,1,3.2,2.2,4.2,3.5c1,1.3,1.7,2.8,2,4.4c0.3,1.6,0.3,3.2,0,4.9l-11.1-2.3c0.3-1.5,0.2-2.7-0.4-3.7
		c-0.6-1-1.7-1.6-3.2-1.9c-1.1-0.2-2.2-0.2-3.1,0.2s-1.5,1-1.7,2.1c-0.1,0.6,0,1.2,0.3,1.7c0.3,0.5,0.8,1,1.5,1.5
		c0.7,0.5,1.6,1,2.6,1.6C199.3,78.2,200.5,78.9,201.9,79.7z"/>
	<path class="st0" d="M235.9,97.8c-0.9,0-1.9,0-3.2-0.1c-1.3-0.1-2.8-0.3-4.4-0.5c-1.3-0.2-2.7-0.6-4.2-1c-1.4-0.4-2.7-1.2-3.9-2.2
		c-1.1-1-2-2.5-2.5-4.3c-0.5-1.8-0.6-4.2-0.1-7.2l2.5-15.3l-5.6-0.9l1.4-8.4l5.6,0.9l1.7-10.6l11.3,1.9l-1.7,10.6L241,62l-1.4,8.4
		l-8.1-1.3l-2.1,12.7c-0.2,1.3-0.3,2.4-0.2,3.2c0.1,0.8,0.4,1.5,0.7,2c0.4,0.5,0.8,0.9,1.4,1.1c0.6,0.2,1.2,0.4,1.9,0.5
		c0.7,0.1,1.4,0.2,2.1,0.4c0.7,0.1,1.4,0.2,2,0.1L235.9,97.8z"/>
	<g>
		<path class="st0" d="M188.3,127c0.2-0.9,0.5-1.7,0.9-2.4c0.4-0.7,0.9-1.2,1.4-1.7c0.5-0.5,1.2-0.9,1.8-1.3c0.5-0.3,1-0.6,1.4-0.8
			c0.4-0.3,0.8-0.5,1.1-0.8c0.3-0.3,0.6-0.6,0.8-0.9c0.2-0.3,0.3-0.7,0.3-1.1c0-0.7-0.2-1.2-0.6-1.5c-0.4-0.3-0.8-0.5-1.4-0.5
			c-0.6,0-1.1,0.2-1.6,0.6c-0.4,0.4-0.6,1-0.6,1.9H188c0-0.8,0.1-1.5,0.4-2.2c0.3-0.7,0.7-1.2,1.2-1.7c0.5-0.5,1.2-0.9,1.9-1.2
			c0.7-0.3,1.6-0.4,2.6-0.4c0.8,0,1.5,0.1,2.2,0.3c0.7,0.2,1.3,0.5,1.9,0.9c0.5,0.4,1,1,1.3,1.6c0.3,0.7,0.5,1.4,0.5,2.3
			c0,0.7-0.2,1.4-0.5,2c-0.3,0.6-0.7,1.1-1.1,1.6c-0.4,0.5-0.9,0.9-1.5,1.2c-0.5,0.4-1,0.6-1.4,0.9c-0.6,0.4-1.1,0.7-1.5,1
			c-0.4,0.3-0.7,0.6-0.9,0.8c-0.2,0.2-0.4,0.5-0.5,0.8c-0.1,0.3-0.1,0.6-0.1,0.9h7.3v3.2H188C188,129.1,188.1,127.9,188.3,127z"/>
		<path class="st0" d="M202,119.1c0-0.8,0.2-1.6,0.5-2.3c0.3-0.7,0.7-1.4,1.3-1.9c0.6-0.6,1.2-1,2.1-1.3c0.8-0.3,1.7-0.5,2.7-0.5
			c1,0,1.9,0.2,2.7,0.5c0.8,0.3,1.5,0.8,2.1,1.3c0.6,0.6,1,1.2,1.3,1.9c0.3,0.7,0.5,1.5,0.5,2.3v5.6c0,0.8-0.2,1.6-0.5,2.3
			c-0.3,0.7-0.8,1.4-1.3,1.9c-0.6,0.6-1.3,1-2.1,1.3c-0.8,0.3-1.7,0.5-2.7,0.5c-1,0-1.9-0.2-2.7-0.5c-0.8-0.3-1.5-0.8-2.1-1.3
			c-0.6-0.6-1-1.2-1.3-1.9c-0.3-0.7-0.5-1.5-0.5-2.3V119.1z M211.1,119.1c0-0.4-0.1-0.7-0.2-1.1c-0.1-0.3-0.3-0.6-0.5-0.9
			c-0.2-0.3-0.5-0.5-0.8-0.6c-0.3-0.1-0.7-0.2-1.1-0.2c-0.4,0-0.7,0.1-1.1,0.2c-0.3,0.1-0.6,0.3-0.8,0.6c-0.2,0.3-0.4,0.5-0.5,0.9
			c-0.1,0.3-0.2,0.7-0.2,1.1v5.6c0,0.4,0.1,0.7,0.2,1.1c0.1,0.3,0.3,0.6,0.5,0.9c0.2,0.3,0.5,0.5,0.8,0.6c0.3,0.1,0.7,0.2,1.1,0.2
			c0.4,0,0.8-0.1,1.1-0.2c0.3-0.1,0.6-0.3,0.8-0.6c0.2-0.3,0.4-0.5,0.5-0.9c0.1-0.3,0.2-0.7,0.2-1.1V119.1z"/>
		<path class="st0" d="M216.8,116.3c0.8,0,1.5-0.1,2-0.2c0.5-0.1,0.9-0.3,1.2-0.6c0.3-0.2,0.5-0.6,0.6-0.9c0.1-0.4,0.2-0.8,0.2-1.3
			h3.5v17.1h-4v-11.3h-3.5V116.3z"/>
		<path class="st0" d="M233.5,130.8c-1,0-1.9-0.1-2.7-0.4c-0.8-0.3-1.5-0.7-2-1.1c-0.5-0.5-1-1-1.3-1.7c-0.3-0.6-0.4-1.3-0.4-2
			c0-0.5,0.1-0.9,0.2-1.3c0.1-0.4,0.3-0.8,0.6-1.2c0.2-0.4,0.5-0.7,0.9-0.9c0.3-0.3,0.7-0.4,1.1-0.6c-0.7-0.3-1.3-0.8-1.7-1.4
			c-0.4-0.7-0.6-1.4-0.6-2.2c0-0.7,0.1-1.3,0.4-1.9c0.3-0.6,0.7-1.1,1.2-1.6s1.1-0.8,1.9-1.1c0.7-0.3,1.6-0.4,2.6-0.4
			c0.9,0,1.8,0.1,2.5,0.4c0.7,0.3,1.4,0.6,1.9,1.1c0.5,0.4,0.9,1,1.2,1.6c0.3,0.6,0.4,1.2,0.4,1.9c0,0.8-0.2,1.5-0.6,2.2
			c-0.4,0.7-1,1.2-1.7,1.4c0.4,0.1,0.8,0.3,1.1,0.6c0.3,0.3,0.6,0.6,0.9,0.9c0.2,0.4,0.4,0.8,0.6,1.2c0.1,0.4,0.2,0.9,0.2,1.3
			c0,0.7-0.1,1.4-0.4,2c-0.3,0.6-0.7,1.2-1.2,1.7c-0.5,0.5-1.2,0.9-2,1.2C235.5,130.7,234.6,130.8,233.5,130.8z M233.5,127.8
			c0.4,0,0.8-0.1,1.1-0.2c0.3-0.1,0.6-0.3,0.8-0.5c0.2-0.2,0.4-0.5,0.5-0.7c0.1-0.3,0.2-0.6,0.2-0.9s-0.1-0.6-0.2-0.9
			c-0.1-0.3-0.3-0.5-0.5-0.8c-0.2-0.2-0.5-0.4-0.8-0.5c-0.3-0.1-0.7-0.2-1.1-0.2c-0.8,0-1.5,0.2-1.9,0.7c-0.4,0.5-0.7,1-0.7,1.7
			c0,0.3,0.1,0.6,0.2,0.9c0.1,0.3,0.3,0.5,0.5,0.7c0.2,0.2,0.5,0.4,0.8,0.5C232.8,127.8,233.1,127.8,233.5,127.8z M233.5,120.2
			c0.7,0,1.2-0.2,1.6-0.6c0.4-0.4,0.6-0.9,0.6-1.5c0-0.6-0.2-1.1-0.6-1.5c-0.4-0.4-0.9-0.6-1.6-0.6c-0.7,0-1.3,0.2-1.7,0.6
			c-0.4,0.4-0.6,0.9-0.6,1.5c0,0.6,0.2,1.1,0.6,1.5C232.2,120,232.8,120.2,233.5,120.2z"/>
	</g>
	<path class="st0" d="M17.8,44.8l11.1-0.9l1.8,21.5c0.8-2,2.2-3.6,4.1-4.9c1.9-1.3,4.3-2,7-2.2c2.3-0.2,4.3,0,6,0.6
		c1.7,0.6,3,1.5,4.1,2.7c1.3,1.3,2.2,2.9,2.7,4.7c0.6,1.8,0.9,4,1.1,6.6l1.8,21.3l-11.1,0.9L45,76.6c-0.2-2.6-0.8-4.7-1.9-6.2
		c-1.1-1.5-2.8-2.2-5.2-2c-2.3,0.2-4,1.2-5,2.9c-1,1.7-1.4,4-1.2,6.8l1.5,18.1l-11.1,0.9L17.8,44.8z"/>
	<g>
		<path class="st0" d="M19.8,119.2v4.5h5.4v1.5h-5.4v5.1h-1.6v-12.6h7.1v1.5H19.8z"/>
		<path class="st0" d="M33.6,130.3l-0.7-1.9h-5.1l-0.6,1.9h-1.7l4.3-12.6h1.2l4.4,12.6H33.6z M30.4,120.4l-2.1,6.5h4.1L30.4,120.4z"
			/>
		<path class="st0" d="M42.5,128.8v1.5h-5.8v-12.6h1.6v11.1H42.5z"/>
		<path class="st0" d="M50.2,128.8v1.5h-5.8v-12.6h1.6v11.1H50.2z"/>
		<path class="st0" d="M52.1,117.7h1.7v12.6h-1.7V117.7z"/>
		<path class="st0" d="M64.1,127.4v-9.7h1.6v12.6h-1.8l-5.7-9.7v9.7h-1.6v-12.6h1.8L64.1,127.4z"/>
		<path class="st0" d="M75.6,124.2h6.1v1.5h-1.4c-0.1,0.7-0.3,1.4-0.7,2c-0.3,0.6-0.7,1.1-1.2,1.5c-0.5,0.4-1.1,0.8-1.8,1
			c-0.7,0.2-1.5,0.4-2.3,0.4c-1,0-2-0.2-2.8-0.5c-0.8-0.4-1.5-0.9-2-1.5c-0.6-0.6-1-1.3-1.3-2.1c-0.3-0.8-0.4-1.6-0.4-2.5
			c0-0.9,0.2-1.7,0.5-2.5c0.3-0.8,0.7-1.5,1.3-2.1c0.6-0.6,1.2-1.1,2-1.5s1.7-0.5,2.7-0.5c0.7,0,1.4,0.1,2,0.3
			c0.6,0.2,1.1,0.5,1.6,0.8c0.5,0.3,0.8,0.8,1.1,1.2c0.3,0.5,0.5,1,0.5,1.5h-1.7c-0.1-0.3-0.2-0.6-0.4-0.9c-0.2-0.3-0.5-0.5-0.8-0.7
			c-0.3-0.2-0.7-0.4-1.1-0.5c-0.4-0.1-0.8-0.2-1.3-0.2c-0.7,0-1.4,0.1-2,0.4c-0.6,0.3-1.1,0.7-1.5,1.1s-0.7,1-0.9,1.6
			c-0.2,0.6-0.3,1.3-0.3,1.9c0,0.7,0.1,1.3,0.3,1.9s0.5,1.2,0.9,1.6s0.9,0.9,1.6,1.1c0.6,0.3,1.3,0.4,2.2,0.4c0.6,0,1.2-0.1,1.6-0.3
			c0.5-0.2,0.9-0.4,1.2-0.7c0.3-0.3,0.6-0.7,0.8-1.1s0.3-0.9,0.4-1.3h-3V124.2z"/>
		<path class="st0" d="M88.1,117.7h1.7v12.6h-1.7V117.7z"/>
		<path class="st0" d="M100.1,127.4v-9.7h1.6v12.6h-1.8l-5.7-9.7v9.7h-1.6v-12.6h1.8L100.1,127.4z"/>
		<path class="st0" d="M106.6,119.2h-3.3v-1.5h8.2v1.5h-3.3v11.1h-1.6V119.2z"/>
		<path class="st0" d="M118.1,130.6c-1,0-1.9-0.2-2.7-0.5c-0.8-0.4-1.5-0.9-2-1.5c-0.6-0.6-1-1.3-1.3-2.1c-0.3-0.8-0.5-1.6-0.5-2.5
			c0-0.9,0.1-1.7,0.5-2.5c0.3-0.8,0.7-1.5,1.3-2.1c0.6-0.6,1.2-1.1,2-1.5c0.8-0.4,1.7-0.5,2.7-0.5s1.9,0.2,2.7,0.5s1.5,0.9,2,1.5
			c0.6,0.6,1,1.3,1.3,2.1c0.3,0.8,0.5,1.6,0.5,2.5c0,0.9-0.2,1.7-0.5,2.5s-0.7,1.5-1.3,2.1c-0.6,0.6-1.2,1.1-2,1.5
			C120,130.4,119.1,130.6,118.1,130.6z M118.1,129.1c0.7,0,1.4-0.1,2-0.4c0.6-0.3,1.1-0.7,1.5-1.1c0.4-0.5,0.7-1,0.9-1.6
			c0.2-0.6,0.3-1.2,0.3-1.9c0-0.7-0.1-1.3-0.3-1.9c-0.2-0.6-0.5-1.2-0.9-1.6c-0.4-0.5-0.9-0.9-1.5-1.1c-0.6-0.3-1.3-0.4-2-0.4
			c-0.7,0-1.4,0.1-2,0.4c-0.6,0.3-1.1,0.7-1.5,1.1s-0.7,1-1,1.6c-0.2,0.6-0.3,1.3-0.3,1.9c0,0.7,0.1,1.3,0.3,1.9
			c0.2,0.6,0.5,1.2,1,1.6c0.4,0.5,0.9,0.9,1.5,1.1S117.4,129.1,118.1,129.1z"/>
		<path class="st0" d="M131.3,117.7h4.4c0.7,0,1.3,0.1,1.8,0.3s1,0.5,1.4,0.9s0.7,0.9,0.9,1.4c0.2,0.5,0.3,1.1,0.3,1.6
			s-0.1,1.1-0.3,1.6c-0.2,0.5-0.5,1-0.9,1.4c-0.4,0.4-0.8,0.7-1.4,0.9c-0.5,0.2-1.1,0.3-1.8,0.3h-2.8v4h-1.6V117.7z M135.7,124.8
			c0.4,0,0.8-0.1,1.1-0.2c0.3-0.1,0.6-0.4,0.8-0.6s0.4-0.5,0.5-0.9c0.1-0.3,0.2-0.7,0.2-1.1c0-0.4-0.1-0.7-0.2-1.1
			c-0.1-0.3-0.3-0.6-0.5-0.9c-0.2-0.3-0.5-0.5-0.8-0.6s-0.7-0.2-1.1-0.2h-2.8v5.6H135.7z"/>
		<path class="st0" d="M147.8,128.8v1.5H142v-12.6h1.6v11.1H147.8z"/>
		<path class="st0" d="M156.5,130.3l-0.7-1.9h-5.1l-0.6,1.9h-1.7l4.3-12.6h1.2l4.4,12.6H156.5z M153.3,120.4l-2.1,6.5h4.1
			L153.3,120.4z"/>
		<path class="st0" d="M171.2,126.4c-0.2,0.6-0.4,1.1-0.8,1.6c-0.4,0.5-0.8,1-1.3,1.3s-1.1,0.7-1.7,0.9c-0.6,0.2-1.4,0.3-2.1,0.3
			c-1,0-2-0.2-2.8-0.5c-0.8-0.4-1.5-0.8-2.1-1.4c-0.6-0.6-1-1.3-1.3-2.1s-0.5-1.6-0.5-2.5c0-0.9,0.1-1.7,0.4-2.5s0.7-1.5,1.3-2.1
			c0.6-0.6,1.2-1.1,2-1.5c0.8-0.4,1.7-0.5,2.7-0.5c0.9,0,1.7,0.1,2.4,0.4c0.7,0.2,1.3,0.6,1.8,1c0.5,0.4,0.9,0.9,1.2,1.5
			c0.3,0.6,0.5,1.2,0.6,1.8h-1.7c-0.1-0.5-0.3-0.9-0.5-1.3c-0.2-0.4-0.5-0.7-0.9-1c-0.4-0.3-0.8-0.5-1.3-0.7c-0.5-0.2-1-0.2-1.6-0.2
			c-0.8,0-1.5,0.1-2.1,0.4c-0.6,0.3-1.1,0.7-1.5,1.1c-0.4,0.5-0.7,1-1,1.6c-0.2,0.6-0.3,1.2-0.3,1.9c0,0.7,0.1,1.4,0.3,2
			c0.2,0.6,0.6,1.2,1,1.6c0.4,0.5,1,0.8,1.6,1.1c0.6,0.3,1.4,0.4,2.2,0.4c0.4,0,0.9-0.1,1.3-0.2c0.4-0.1,0.8-0.3,1.1-0.6
			c0.3-0.2,0.7-0.5,0.9-0.9c0.3-0.3,0.5-0.7,0.6-1.1H171.2z"/>
		<path class="st0" d="M174.9,119.2v4.1h5.4v1.5h-5.4v4h5.4v1.5h-7.1v-12.6h7.1v1.5H174.9z"/>
	</g>
</g>
</svg>
