<svg id="Layer_1" data-name="Layer 1" xmlns="http://www.w3.org/2000/svg" viewBox="0 0 248.33 194.05"><defs><style>.cls-1{fill:#fff;}</style></defs><title>laser_labs</title><path class="cls-1" d="M121.73,144a13.84,13.84,0,0,1-6.93-1.86l-49.37-28.5a13.92,13.92,0,0,1-6.93-12v-57a13.92,13.92,0,0,1,6.93-12L114.8,4.1a13.86,13.86,0,0,1,13.87,0L178,32.6a13.9,13.9,0,0,1,6.93,12v57a13.9,13.9,0,0,1-6.93,12l-49.36,28.5a13.88,13.88,0,0,1-6.94,1.86Zm0-135.91a8.09,8.09,0,0,0-4,1.07L68.35,37.65a8,8,0,0,0-4,7v57a8.08,8.08,0,0,0,4,7l49.36,28.5a8.17,8.17,0,0,0,8,0l49.37-28.5a8.08,8.08,0,0,0,4-7v-57a8,8,0,0,0-4-7L125.75,9.14a8.09,8.09,0,0,0-4-1.07Z"/><path class="cls-1" d="M116.49,112.72a2.91,2.91,0,0,1-2.91-2.92V55.5l-7.41,23.72a2.91,2.91,0,0,1-5.56-1.74l13.1-41.93a2.91,2.91,0,0,1,5.69.87V109.8a2.91,2.91,0,0,1-2.91,2.92Z"/><path class="cls-1" d="M79.8,76H62.3a2.91,2.91,0,0,1,0-5.82H78.59L93.75,55a2.91,2.91,0,1,1,4.12,4.12l-16,16A2.91,2.91,0,0,1,79.8,76Z"/><path class="cls-1" d="M103.39,81.27a2.93,2.93,0,0,1-2.75-1.94L93.07,58.08a2.91,2.91,0,1,1,5.48-2l7.58,21.25a2.92,2.92,0,0,1-1.76,3.73,3.11,3.11,0,0,1-1,.17Z"/><path class="cls-1" d="M127,112.72a2.91,2.91,0,0,1-2.92-2.92V36.42a2.91,2.91,0,0,1,1.8-2.69,2.87,2.87,0,0,1,3.17.63l21,21a2.91,2.91,0,0,1-4.12,4.11l-16-16v59.32l31.72-31.72a2.91,2.91,0,0,1,2.06-.85h17.49a2.91,2.91,0,1,1,0,5.82H164.88L129,111.86a2.89,2.89,0,0,1-2,.86Z"/><path class="cls-1" d="M72,161.67c0-2.13,0-4.26-.17-6.38h.07L74,165h1.21l2.15-9.75h0c-.13,2.12-.18,4.25-.18,6.38V165h2V154.33H76l-1.07,5a24.18,24.18,0,0,0-.31,2.47h0c-.09-.83-.2-1.66-.37-2.47l-1.07-5H70V165h2v-3.37Zm14.17-.44c0,.68.09,2.46-1,2.46-1.37,0-1.45-1.45-1.45-2.33v-3c0-.83-.12-2.7,1.45-2.7,1,0,.91,1.28,1,2h2a7.5,7.5,0,0,0,0-.82,2.69,2.69,0,0,0-2.93-2.77c-3.2,0-3.42,2-3.5,4.76v1.53c0,2.85.21,4.94,3.5,4.94,2.23,0,2.89-1.5,3-3.46,0-.2,0-.41,0-.61ZM99,165v-1.57H95.32v-9.14h-2V165Zm3.44,0,.53-2.71h2.35l.52,2.71H108l-2.43-10.71h-2.7L100.33,165Zm1.45-7.33c.1-.5.14-1,.2-1.48,0-.24,0-.49.07-.72h0c0,.23,0,.48.07.72.06.5.1,1,.2,1.48l.54,3h-1.71l.6-3Zm11.93-.12c0-1.06.07-3.52-3.12-3.52-2.11,0-3.14,1-3.14,2.83a2.94,2.94,0,0,0,.51,1.64,15.82,15.82,0,0,0,3.16,2.47,1.64,1.64,0,0,1,.8,1.42,1.11,1.11,0,0,1-1.24,1.26c-1,0-1.3-.76-1.26-1.8v-.63h-2V162c0,1.92.86,3.26,3.26,3.26,2,0,3.3-1.06,3.3-3.09a2.82,2.82,0,0,0-.9-2.24,19.28,19.28,0,0,0-2.43-1.76c-.63-.4-1.14-.71-1.14-1.52s.42-1,1.1-1c1.1,0,1.18.94,1.17,1.9Zm8.21,7.45v-1.57h-3.63v-3.3h3.34V158.6h-3.34v-2.7h3.63v-1.57h-5.63V165Zm4.61-4.61a6,6,0,0,1,1.7.14c.69.2.68,1.1.69,1.76a10.68,10.68,0,0,0,.21,2.71h2.2v-.2c-.48-.31-.42-2.94-.42-3.38,0-1-.36-1.79-1.55-2v0c1.35-.19,1.65-1.42,1.65-2.59,0-2-1.32-2.57-3.05-2.57h-3.78V165h2v-4.61Zm-.35-4.53h1.48c.76,0,1.26.21,1.26,1.41s-.51,1.5-1.17,1.55h-1.57v-3Zm16,9.14v-1.57h-3.72v-9.14h-2V165Zm3.44,0,.53-2.71h2.34l.53,2.71h2.14l-2.42-10.71h-2.7L145.66,165Zm1.44-7.33c.1-.5.15-1,.2-1.48,0-.24.05-.49.08-.72h0c0,.23.06.48.08.72,0,.5.1,1,.2,1.48l.54,3h-1.72l.6-3Zm7.88,5.76v-3.24h.77c1.24,0,1.47.48,1.47,1.64,0,.54-.07,1.24-.62,1.49a3.13,3.13,0,0,1-1.2.11Zm0-4.81V155.9H158c.92,0,1.09.43,1.09,1.23a2.13,2.13,0,0,1-.21,1.16c-.32.4-.95.37-1.43.37Zm1.52,6.38a2.42,2.42,0,0,0,2.63-1.93,4.79,4.79,0,0,0,.15-1.31c0-1.39-.43-2.33-1.56-2.49v0a2.08,2.08,0,0,0,1.28-2.25,2.92,2.92,0,0,0-.52-1.93,2.65,2.65,0,0,0-2.28-.78h-3.22V165Zm11.19-7.45c0-1.06.07-3.52-3.11-3.52-2.12,0-3.15,1-3.15,2.83a3,3,0,0,0,.52,1.64,15.48,15.48,0,0,0,3.15,2.47,1.62,1.62,0,0,1,.8,1.42,1.11,1.11,0,0,1-1.24,1.26c-1,0-1.3-.76-1.26-1.8v-.63h-2V162c0,1.92.86,3.26,3.26,3.26,2,0,3.3-1.06,3.3-3.09a2.79,2.79,0,0,0-.9-2.24,19.28,19.28,0,0,0-2.43-1.76c-.63-.4-1.14-.71-1.14-1.52s.43-1,1.1-1c1.1,0,1.19.94,1.17,1.9Z"/><path class="cls-1" d="M6.52,191.6v-1h-4v-8.91H1.38v9.91Zm2.16,0H9.9l.72-2.86h3.14l.78,2.86h1.21L13,181.69H11.51L8.68,191.6Zm4.83-3.85H10.89l1.31-5.27h0l1.29,5.27Zm10.41-3.46c.1-1.86-1-2.8-2.82-2.8a2.6,2.6,0,0,0-2.76,2.71,2.21,2.21,0,0,0,1.18,2.24c.53.28,1.4.56,1.94.77,1,.38,1.61.4,1.61,1.9a1.66,1.66,0,0,1-1.89,1.73c-1.65,0-1.93-.92-1.87-2.39h-1.1a5.48,5.48,0,0,0,.21,1.81,2.7,2.7,0,0,0,2.71,1.57,2.78,2.78,0,0,0,3.08-3c0-1.31-.35-2-2.22-2.67l-1.57-.59a1.3,1.3,0,0,1-.94-1.35c0-.77.17-1.77,1.77-1.77a1.52,1.52,0,0,1,1.57,1.81Zm8.57,7.31v-1H28.61v-3.66h3.62v-1H28.61v-3.27h3.86v-1h-5v9.91ZM37,182.68h1.54c.74,0,2.08,0,2.1,1.74a1.69,1.69,0,0,1-1.91,1.82H37v-3.56Zm0,4.56h1.91c1.3,0,1.69.84,1.69,1.83A9.09,9.09,0,0,0,41,191.6h1.28v-.23c-.27,0-.35-.43-.39-.62-.1-.74-.17-1.47-.21-2.21-.15-1.32-.47-1.73-1.75-1.85v0a2.12,2.12,0,0,0,1.9-2.16c.06-2.28-1.26-2.82-3.33-2.82H35.93v9.91H37v-4.36Zm14.6.72v-1.09H48.42V188Zm12.19-3.3c0-1.77-.92-3.17-2.8-3.17-2.81,0-3.14,2.8-3.14,5s.1,5.31,3.15,5.31a2.51,2.51,0,0,0,2.16-1.11,3.84,3.84,0,0,0,.58-2.1c0-.2,0-.41,0-.61h-1.1l-.06.68c-.13,1.08-.41,2.15-1.72,2.15-2,0-2-3-1.93-4.34s0-4,1.93-4c1.38,0,1.76,1,1.78,2.18Zm8.31,5.11c0,.37,0,.76,0,1.11h0a11,11,0,0,0-.34-1.08L69,181.69H67.19v9.91h1.1v-7.91c0-.5,0-1,0-1.51h0a7.72,7.72,0,0,0,.37,1.49l2.77,7.93h1.8v-9.91h-1.1v8.08Zm10.41-5.11c.06-1.77-.92-3.17-2.8-3.17-2.81,0-3.14,2.8-3.14,5s.1,5.31,3.16,5.31a2.48,2.48,0,0,0,2.15-1.11,3.68,3.68,0,0,0,.58-2.1c0-.2,0-.41.05-.61H81.45c0,.23,0,.45-.07.68-.13,1.08-.41,2.15-1.72,2.15-2,0-2-3-1.93-4.34s0-4,1.93-4c1.38,0,1.76,1,1.79,2.18ZM92,188v-1.09H88.79V188Zm12.19-3.3c0-1.77-.92-3.17-2.8-3.17-2.81,0-3.15,2.8-3.15,5s.11,5.31,3.16,5.31a2.51,2.51,0,0,0,2.16-1.11,3.84,3.84,0,0,0,.58-2.1c0-.2,0-.41,0-.61h-1.1l-.06.68c-.13,1.08-.41,2.15-1.72,2.15-2,0-2-3-1.93-4.34s0-4,1.93-4c1.37,0,1.76,1,1.78,2.18Zm3.42,4.54c0,1.77,1.18,2.63,3,2.63s3-.86,3-2.63v-7.51h-1.1v7.12c0,.78-.12,2-1.87,2s-1.89-1.25-1.88-2v-7.12h-1.1v7.51Zm15-4.91c.11-1.86-1-2.8-2.81-2.8a2.6,2.6,0,0,0-2.77,2.71,2.21,2.21,0,0,0,1.18,2.24c.53.28,1.4.56,1.94.77,1,.38,1.61.4,1.61,1.9a1.66,1.66,0,0,1-1.89,1.73c-1.65,0-1.92-.92-1.87-2.39H117a5.76,5.76,0,0,0,.21,1.81,2.7,2.7,0,0,0,2.71,1.57,2.78,2.78,0,0,0,3.08-3c0-1.31-.34-2-2.22-2.67l-1.57-.59a1.3,1.3,0,0,1-.94-1.35c0-.77.17-1.77,1.77-1.77a1.52,1.52,0,0,1,1.57,1.81Zm2.82-1.61H128v8.92h1.09v-8.92h2.57v-1h-6.22v1Zm8.83,3.75c0,2.75.37,5.4,3.27,5.4s3.25-2.65,3.26-5.4c0-2.27-.34-4.94-3.24-4.94s-3.29,2.67-3.29,4.94Zm5.4,0c0,2.86-.31,4.38-2.13,4.38s-2.12-1.52-2.13-4.38c0-2.21.41-4,2.1-4s2.17,1.77,2.16,4Zm8.93,2.94a12.36,12.36,0,0,0-.25,1.48h0a9.06,9.06,0,0,0-.21-1.46l-1.94-7.73h-2v9.91h1.1v-8.14c0-.43,0-.86,0-1.28h0c.12.54.2.87.29,1.21l2.08,8.21H149l2.08-8.09c.09-.38.18-.75.3-1.33h0c0,.42,0,.83,0,1.25v8.17h1.1v-9.91h-1.93l-2,7.71Zm11.93,2.2v-4.68h3.3v-1h-3.3v-3.25h3.55v-1h-4.65v9.91Zm5.1,0h1.21l.73-2.86h3.13l.78,2.86h1.22L170,181.69H168.5l-2.83,9.91Zm4.82-3.85h-2.61l1.3-5.27h0l1.28,5.27Zm6.19,2.85v-3.68h1c1.13,0,2.4-.13,2.38,1.82,0,1.3-.43,1.88-1.62,1.86Zm0-7.92h1c1.67,0,2.11.33,2.11,1.56,0,1.52-.76,1.75-2.1,1.69h-1v-3.25Zm1.52,8.92a2.59,2.59,0,0,0,3-2.92c0-1.22-.41-2.17-1.72-2.33v0a1.92,1.92,0,0,0,1.48-2.18c-.05-1.48-.73-2.51-2.52-2.45h-2.83v9.91Zm7.55-8.92h1.55c.74,0,2.08,0,2.1,1.74a1.69,1.69,0,0,1-1.92,1.82h-1.73v-3.56Zm0,4.56h1.92c1.3,0,1.69.84,1.69,1.83a9.46,9.46,0,0,0,.34,2.53H191v-.23c-.27,0-.35-.43-.39-.62-.1-.74-.17-1.47-.21-2.21-.16-1.32-.47-1.73-1.76-1.85v0a2.13,2.13,0,0,0,1.91-2.16c.06-2.28-1.26-2.82-3.33-2.82h-2.55v9.91h1.09v-4.36Zm9.89,4.36v-9.91h-1.1v9.91Zm9.58-6.94c.05-1.77-.93-3.17-2.8-3.17-2.82,0-3.15,2.8-3.15,5s.11,5.31,3.16,5.31a2.48,2.48,0,0,0,2.15-1.11,3.77,3.77,0,0,0,.59-2.1c0-.2,0-.41.05-.61h-1.1l-.06.68c-.14,1.08-.41,2.15-1.72,2.15-2,0-2-3-1.93-4.34s0-4,1.93-4c1.37,0,1.76,1,1.78,2.18Zm2.5,6.94h1.21l.73-2.86h3.13l.78,2.86h1.21L212,181.69h-1.46l-2.82,9.91Zm4.82-3.85h-2.62l1.31-5.27h0l1.29,5.27Zm3.5-5.07h2.56v8.92h1.1v-8.92h2.56v-1H216v1Zm10.45,8.92v-9.91h-1.1v9.91Zm3.71-5.17c0,2.75.37,5.4,3.27,5.4s3.25-2.65,3.26-5.4c0-2.27-.34-4.94-3.24-4.94s-3.29,2.67-3.29,4.94Zm5.39,0c0,2.86-.3,4.38-2.12,4.38s-2.12-1.52-2.13-4.38c0-2.21.41-4,2.1-4s2.17,1.77,2.15,4Zm9.52,3.31c0,.37,0,.76,0,1.11h0a10.69,10.69,0,0,0-.35-1.08L242,181.69h-1.78v9.91h1.09v-7.91c0-.5,0-1,0-1.51h0a9.53,9.53,0,0,0,.37,1.49l2.78,7.93h1.8v-9.91h-1.1v8.08Z"/></svg>