<svg xmlns="http://www.w3.org/2000/svg" viewBox="0 0 331.483 194.99"><title>logos</title><g id="logo_white" data-name="Layer 2"><path d="M195.005,20.343H178.147l-1.494,0h0c-3.026,0-5.486.453-5.486,3.143V62.488h0a2.612,2.612,0,0,0,1.483,2.543c.01,0,.019.011.03.016a.174.174,0,0,0,.016.008,9.4,9.4,0,0,0,3.957.6h18.354c2.688,0,3.192-2.2,3.192-4.911v0c0-2.708-.5-4.908-3.192-4.908H182.879a.741.741,0,0,1-.738-.741V50.207a.74.74,0,0,1,.738-.741h8.043c2.689,0,3.192-2.2,3.192-4.912v0c0-2.709-.5-4.907-3.192-4.907h-8.043a.741.741,0,0,1-.738-.741v-8a.737.737,0,0,1,.738-.737h12.126c2.688,0,3.192-2.2,3.192-4.912v-.005c0-2.709-.5-4.905-3.192-4.905" fill="#fff"/><path d="M160.473,41.588a.708.708,0,0,1-.166-1.086,10.5,10.5,0,0,0,2.747-7.139c0-9.309-4.507-13.054-15.238-13.054H143.7c-3.1,0-5.621.5-5.621,3.194v39h0a2.61,2.61,0,0,0,1.52,2.544l.034.019.016.005a9.738,9.738,0,0,0,4.032.625h4.138c4.865,0,18.108.814,18.108-13.791,0-5.4-2.3-8.419-5.452-10.316m-12.7-8.408V29.312a.73.73,0,0,1,.734-.722c.511,0,1.077,0,1.077,0,2.551,0,4.4,1.893,4.4,4.966,0,3.22-1.82,4.966-4.3,4.966H148.51a.731.731,0,0,1-.738-.724Zm1.955,22.942H148.51a.73.73,0,0,1-.738-.722V46.788a.73.73,0,0,1,.738-.724l1.255,0c2.925,0,5.476,1.723,5.476,4.687,0,3.235-1.746,5.366-5.515,5.366" fill="#fff"/><path d="M100.709,83.72c-13.688,0-23.8,9.286-23.8,32.7s10.11,32.693,23.8,32.693,23.8-9.283,23.8-32.693-10.11-32.7-23.8-32.7m6.9,33c0,16.458-3.634,19.438-6.9,19.438s-6.9-2.981-6.9-19.438v-1.964c0-16.454,3.63-18.782,6.9-18.782s6.9,2.329,6.9,18.782Z" fill="#fff"/><path d="M312.965,84.037H278.957a3.809,3.809,0,0,0-3.635,1.9.378.378,0,0,0-.022.041.049.049,0,0,0-.012.019,10.879,10.879,0,0,0-.893,5.062h0a10.876,10.876,0,0,0,.893,5.062.068.068,0,0,0,.012.02.214.214,0,0,0,.022.039,3.808,3.808,0,0,0,3.635,1.9h8.1a1.061,1.061,0,0,1,1.057,1.062V144.3a3.742,3.742,0,0,0,2.121,3.637c.014.007.029.015.045.022a.042.042,0,0,1,.02.013,13.43,13.43,0,0,0,5.655.89h.007a13.411,13.411,0,0,0,5.656-.89.139.139,0,0,1,.026-.013c.014-.007.026-.015.041-.022a3.738,3.738,0,0,0,2.124-3.637V99.142a1.061,1.061,0,0,1,1.058-1.062h8.1c3.846,0,4.566-3.144,4.566-7.02h0c0-3.875-.72-7.022-4.566-7.022" fill="#fff"/><path d="M223.349,84.037H197.1c-4.331,0-7.845.646-7.845,4.487V144.3a3.739,3.739,0,0,0,2.122,3.637.448.448,0,0,1,.044.022c.01,0,.02.007.024.013a13.422,13.422,0,0,0,5.655.89h.008c.548,0,1.085-.008,1.6-.038h24.633c3.844,0,4.562-3.147,4.562-7.022h0c0-3.876-.719-7.022-4.562-7.022H206.015a1.059,1.059,0,0,1-1.057-1.06v-6.984a1.055,1.055,0,0,1,1.057-1.055h11.5c3.844,0,4.565-3.15,4.565-7.022h0v0c0-3.875-.722-7.022-4.565-7.022h-11.5a1.056,1.056,0,0,1-1.057-1.056V99.142a1.06,1.06,0,0,1,1.057-1.062h17.335c3.844,0,4.562-3.144,4.562-7.02h0c0-3.875-.719-7.022-4.562-7.022" fill="#fff"/><path d="M69.257,88.524c0-3.841-3.513-4.562-7.845-4.562h0c-4.331,0-7.85.721-7.85,4.562v22.054a1.054,1.054,0,0,1-1.057,1.058H39.985a1.057,1.057,0,0,1-1.056-1.058V88.6c0-3.846-3.512-4.562-7.845-4.562H23.309a3.813,3.813,0,0,0-3.64,1.9.323.323,0,0,0-.022.039.08.08,0,0,1-.011.02,10.9,10.9,0,0,0-.892,5.061v0h0a10.9,10.9,0,0,0,.892,5.061.059.059,0,0,1,.011.02c.008.014.013.027.022.039a3.577,3.577,0,0,0,2.67,1.826,1.053,1.053,0,0,1,.892,1.043V144.3h0a3.745,3.745,0,0,0,2.126,3.639l.043.023a.1.1,0,0,1,.025.012,13.417,13.417,0,0,0,5.656.891h0a13.408,13.408,0,0,0,5.655-.891c.012-.005.016-.009.024-.012l.045-.023a3.741,3.741,0,0,0,2.122-3.639h0v-17.56a1.057,1.057,0,0,1,1.056-1.056H52.5a1.054,1.054,0,0,1,1.057,1.056V144.3h0a3.739,3.739,0,0,0,2.127,3.639l.042.023a.052.052,0,0,1,.024.012,13.423,13.423,0,0,0,5.657.891h0a13.41,13.41,0,0,0,5.654-.891c.008-.005.02-.009.023-.012l.045-.023a3.737,3.737,0,0,0,2.123-3.639h0V88.524Z" fill="#fff"/><path d="M179.44,88.524c0-3.841-3.515-4.562-7.846-4.562h-.007c-4.33,0-7.845.721-7.845,4.562v26.267a.53.53,0,0,1-1.006.23l-13.9-28.086a3.233,3.233,0,0,0-.3-.611l-.015-.027h0c-1.18-1.851-3.983-2.259-7.251-2.259h-8.158a3.822,3.822,0,0,0-3.64,1.9.141.141,0,0,1-.024.039.042.042,0,0,1-.009.02,10.884,10.884,0,0,0-.889,5.061v0h0a10.885,10.885,0,0,0,.889,5.061.036.036,0,0,1,.009.02.112.112,0,0,1,.024.039,3.823,3.823,0,0,0,3.64,1.9h.308V144.3h0a3.735,3.735,0,0,0,2.123,3.639c.011.007.028.015.043.023a.136.136,0,0,1,.022.012,13.41,13.41,0,0,0,5.654.891h.006a13.434,13.434,0,0,0,5.657-.891.051.051,0,0,1,.026-.012.149.149,0,0,1,.043-.023,3.738,3.738,0,0,0,2.121-3.639h0V120.26a.528.528,0,0,1,.994-.249l13.985,26.131a3.689,3.689,0,0,0,1.774,1.8l.044.023a.083.083,0,0,1,.022.012,13.417,13.417,0,0,0,5.654.891h.007a13.417,13.417,0,0,0,5.654-.891.084.084,0,0,1,.024-.012.315.315,0,0,1,.047-.023,3.739,3.739,0,0,0,2.121-3.639h0V88.524Z" fill="#fff"/><path d="M270.608,121.852a21.063,21.063,0,0,0-4.138-5.7c-3.166-3.185-7.134-5.625-10.633-7.777a53.805,53.805,0,0,1-5.738-3.86c-2.108-1.745-1.324-5.05-.273-5.968a4.254,4.254,0,0,1,2.749-1.213c1.7,0,3.342,1.145,4.515,3.142a5.7,5.7,0,0,0,4.9,2.814,5.6,5.6,0,0,0,2.451-.56l2.637-1.275a5.657,5.657,0,0,0,2.587-7.664,19.477,19.477,0,0,0-5.872-6.914,17.59,17.59,0,0,0-10.488-3.3,22.126,22.126,0,0,0-9.315,1.86,16.312,16.312,0,0,0-6.1,4.828,20,20,0,0,0-3.922,12.13,16.485,16.485,0,0,0,1.537,7.038,19.148,19.148,0,0,0,3.844,5.38c2.943,2.974,6.714,5.243,10.039,7.246,4.215,2.538,7.911,4.39,8.2,7.428a5.878,5.878,0,0,1-1.619,4.444,4.439,4.439,0,0,1-3.185,1.2,7.238,7.238,0,0,1-3.737-1.126,9.574,9.574,0,0,1-3.015-3.8,5.662,5.662,0,0,0-7.491-2.434l-2.993,1.463a5.67,5.67,0,0,0-2.621,7.526c3.021,6.306,9.959,12.671,18.642,12.671,8.306,0,13.16-3.514,15.768-6.466a20.627,20.627,0,0,0,4.957-13.739,16.847,16.847,0,0,0-1.684-7.383" fill="#fff"/><path d="M204.206,166.34H133.82v11.1h70.387c3.848,0,4.562-1.674,4.562-5.55v0c0-3.877-.715-5.552-4.562-5.552" fill="#fff"/><path d="M132.068,166.34h70.387v11.1H132.068c-3.846,0-4.567-1.674-4.567-5.55v0c0-3.877.721-5.552,4.567-5.552" fill="#fff"/></g></svg>