<?xml version="1.0" encoding="utf-8"?>
<!-- Generator: Adobe Illustrator 22.1.0, SVG Export Plug-In . SVG Version: 6.00 Build 0)  -->
<svg version="1.1" id="Layer_1" xmlns="http://www.w3.org/2000/svg" xmlns:xlink="http://www.w3.org/1999/xlink" x="0px" y="0px"
	 viewBox="0 0 79 81.2" style="enable-background:new 0 0 79 81.2;" xml:space="preserve">
<style type="text/css">
	.st0{fill:#FFFFFF;}
</style>
<g>
	<path class="st0" d="M62.3,35.6c-0.5-2.1-1.5-4.2-2.5-6c-0.1-0.2-0.2-0.4-0.3-0.5c-0.1-0.2-0.1-0.1-0.3-0.4l-1.8-2.3
		c-0.9-1.1-1.7-1.9-2.8-2.8c-3.2-2.6-5.1-3.4-8.8-4.7c-0.3-0.1-0.1-0.1-0.5-0.2l-1.3-0.2c0,0-0.1,0-0.1,0c-0.1,0-0.2-0.1-0.3-0.1
		c-0.4-0.1-0.3-0.1-0.5-0.1C42.5,18,42,18,41.5,18l-1.2-0.1c-1.8-0.3-6,0.5-7.6,0.9c-4.2,1.1-7.8,3.6-10.6,6.5
		c-8.7,8.9-8.7,23.6-0.2,32.7c1.1,1.1,1.5,1.6,3,2.7l1.6,1.1c3,1.9,4.8,2.5,8.2,3.3c7.3,1.6,15.3-1.2,19.6-4.9
		c3.4-2.8,5.5-5.7,7.2-9.8C63.3,45.8,63.5,40.1,62.3,35.6 M37.3,20.2c10.6-1.5,22.2,7.1,23.4,19.4c1.2,12.6-8.5,22.6-19.4,23.5
		c-19,1.5-30.8-20-18.6-35.1c0,0,0.1-0.1,0.1-0.1c0,0,0.1-0.1,0.1-0.1l4.1-3.7c0,0,0.1,0,0.1-0.1l2-1.3c0.7-0.4,1.2-0.6,1.9-0.9
		C33.9,20.6,34.1,20.7,37.3,20.2z"/>
	<path class="st0" d="M42,41c1.1-1.4,0.8-3.4,0.2-4.9c-0.6,0.3-1.1,1.2-1.6,1.8c-0.7,0.9-0.9,1.5-1.4,1.8c-0.3-0.3-0.1-0.1-0.4-0.5
		l-2.2-2.8c0,0-0.1-0.1-0.1-0.1c-0.4-0.4,0-0.1-0.4-0.3c-1.9,1.6-0.1,5.1,1.5,6.8l1.5,1.5l1.9-2.1c0.2-0.3,0.1,0,0.3-0.4
		C41.6,41.6,41.8,41.3,42,41"/>
	<path class="st0" d="M39.2,38.8c0.7-0.3,0,0.2,0.9-1c0.3-0.4,0.4-0.6,0.7-1c0.5-0.7,1-1.2,1.2-2.3c0.9-5.8-7.3-4.5-5.7,0.3
		C36.7,35.9,38.6,38.3,39.2,38.8"/>
	<path class="st0" d="M38.7,49.2c0.2,0.2,0.1,0.1,0.4,0.3c0.7-0.4,0.4-0.4,1.1-1.1c1-1.1,1.1-1.1,1.7-2.5l0.2-0.7
		c0.2-1-0.1-1.6-1.2-2c-0.5,0.6-1.2,1.6-1.6,1.8c-0.8-0.8-1-1.4-1.9-1.8L36,44.9C35.6,45.9,37.8,48.5,38.7,49.2"/>
	<path class="st0" d="M36,35.6c-0.3-1.4-0.6-1.9,0.1-3.4c0,0,0-0.1,0.1-0.1c0.5-0.9,0.6-0.4,1-1.4c-3.8-0.1-3.7,3-6.7,4.7l-0.3,0.2
		c0.1,0.1,0.1,0.1,0.3,0.3C32,36.9,34.5,36.3,36,35.6"/>
	<path class="st0" d="M41.3,30.6c0.5,0.9,1,1.1,1.2,2.3c0.2,1.3-0.5,2.4,0.4,2.9c0.6,0.4,1.9,0.6,2.8,0.5l2.1-0.4
		c0.4-0.3,0.2-0.1,0.5-0.5c-0.8-0.2-1.2-0.7-1.7-1.2c-0.3-0.3-0.4-0.4-0.7-0.7c-0.2-0.2-0.4-0.5-0.7-0.8
		C44.3,31.5,43.4,30.5,41.3,30.6"/>
	<path class="st0" d="M43,36.4c0.3,2.7-0.1,2.4,1.5,3.7c0.9,0.7,1.7,1.2,2.8,1.6c0.5,0.2,1,0.4,1.6,0.5c-0.2-0.8-0.8-1.6-1.1-2.5
		l-0.5-2.8c-0.8-0.2-1.3,0.1-2.3,0C44.2,36.8,43.6,36.6,43,36.4"/>
	<path class="st0" d="M29.4,42c0.8,0,1.1-0.1,1.8-0.5l1.1-0.5c0.8-0.5,2.1-1.3,2.5-2c0.4-0.6,0.4-1.8,0.4-2.4
		c-0.7,0.2-1.5,0.3-2.2,0.3c-0.9,0-1.3-0.3-2-0.1c-0.3,0.8-0.4,1.9-0.6,2.7C29.9,41,29.7,40.7,29.4,42"/>
	<path class="st0" d="M39,53.6c0.2-0.2,0.1-0.1,0.4-0.2c0.3-0.2,0.1-0.1,0.2-0.3l1.9-2.3c0.4-0.6,0.4-0.7,0.5-1.5
		c-0.7-0.4-0.2-0.6-1.3-1c-0.1,0.4-1.1,1.6-1.6,2.1c-0.8-0.1-0.9-1.4-2.1-1.8L36,49.9c0.3,1,0.7,1.5,1.3,2.1L39,53.6z"/>
	<path class="st0" d="M32.5,41.5c0.1,0.9,1.3,3.7,2.1,4.4c0.4-1.1,1.9-2.1,2.3-3c-0.2-0.7-0.7-1-1.1-1.7c-0.3-0.5-0.5-1.3-0.9-1.7
		L33.1,41C32.7,41.3,32.7,41.3,32.5,41.5"/>
	<path class="st0" d="M43.9,45.9c0.5-0.4,0.4-0.2,0.7-1c0.6-1.5,1.1-1.4,1.2-3.3c-1.6-0.6-1.9-1.5-2.7-1.8c-1.3,2.8-0.7,1.2-1.8,2.9
		C42.3,44.1,43.1,44.5,43.9,45.9"/>
	<path class="st0" d="M45.6,47.7C45.6,47.7,45.6,47.6,45.6,47.7l0.4-1.6c-0.4-0.4-0.4-0.5-1.1-0.7l-0.5,1.3
		c-0.9-0.2-0.7-1.1-1.7-1.5l-1.2,2.4l1.9,2.9c0.3,0.3,0,0.1,0.5,0.3L45.6,47.7z"/>
	<path class="st0" d="M35.7,46.2c0-0.1-0.1-0.3-0.2-0.4l-0.2-0.2c-0.8,0.4-0.7,0.9-1.4,1.1c-0.3-0.4-0.4-0.9-0.6-1.4L32.5,46
		c0,1.7,1.6,4.5,2.2,4.9c0.4-0.3,0.3-0.2,0.5-0.7C37,47.1,37.2,49,35.7,46.2"/>
	<path class="st0" d="M39.3,57.4c0.2-0.4,0.4-0.7,0.7-1.2c1.7-2.5,1.5-2.2,0.8-3.7c-1.5,1.1-1,1.6-1.8,1.9c-0.5-0.4-1-1.2-1.5-1.6
		c-0.5,0.4-0.7,0.9-0.7,1.5l1.7,2.4C38.9,57.3,38.7,57.2,39.3,57.4"/>
	<path class="st0" d="M35.6,50.6c-0.5,0.6-0.4,0.9-1.1,1.2c-0.5-0.6-0.4-0.8-1.1-1.6l-0.7,0.7c0,0,0,0.7,0.4,1.5
		c0.4,0.8,1.3,2.1,2,2.6c0.4,0.4,0.2,0.2,0.6,0.3c0.2-0.4,0,0.1,0.2-0.4c0.1-0.3,0,0,0.1-0.4c0.7-2.5,1.1-1.9,0.2-3L35.6,50.6z"/>
	<path class="st0" d="M45.1,52.2c0,0,0.1-0.4,0.2-0.4l0.4-0.9c-0.4-0.4-0.4-0.4-0.9-0.6c-0.2,0.7-0.5,1.3-1,1.6
		c-0.7-0.7-0.4-1.1-1.2-1.5l-1.3,1.8l1.3,3.3L45.1,52.2z"/>
	<path class="st0" d="M30.1,46.7c0.8-0.1,0.8-0.2,1.8-0.9c0.6-0.4,0.9-0.7,1.3-1.1l-1-2.2C32.1,42.3,32,42,32,41.7l-1.2,0.5
		L30.1,46.7z"/>
	<path class="st0" d="M46.4,42c-0.2,0.6-0.2,0.9-0.5,1.5c-0.2,0.4-0.4,0.8-0.6,1.3c0.2,0.2,0.3,0.3,0.6,0.6l1.4,1
		c0.2,0.2,0.5,0.3,0.8,0.5c0.2-0.5,0.2,0,0.1-0.7C47.6,41.8,48,42.4,46.4,42"/>
	<path class="st0" d="M39.8,30.1c0-3.5,0.8-4,1.2-6c-0.7,0-0.4-0.2-0.9,0.4c-1.3,1.4-1.9,3.8-1.9,5.8C38.8,30.2,39.2,30.1,39.8,30.1
		"/>
	<path class="st0" d="M31.4,51c0.6-0.2,0.2,0,0.7-0.4l0.8-0.7c0.4-0.5,0.3-0.5,0.1-0.9c-0.8-1.5-0.8-2.2-1.2-2.6
		c-0.7,0.5-0.4,1.2-0.4,2.1C31.5,49.4,31.4,50.2,31.4,51"/>
	<path class="st0" d="M46.5,46.6c-0.6,0.6-0.3,0.7-0.7,1.6c-0.3,0.7-0.5,0.9-0.7,1.6c0.5,0.4,1.4,1.1,1.6,1.2
		c0.1-0.2,0.1,0.2,0.2-0.5L46.9,47C46.7,46.7,46.7,46.8,46.5,46.6"/>
	<path class="st0" d="M52.4,53.2c1,0.1,1.7,0,2.3-0.5c0.5-0.4,0.4-0.7,0.5-1.1C53.7,51.6,52.7,51.9,52.4,53.2"/>
	<path class="st0" d="M46.9,58.2c1.4-0.2,2-0.9,1.9-2.4C47.5,55.9,46.9,56.9,46.9,58.2"/>
	<path class="st0" d="M49.7,28.5c-0.2-1.4-1.3-1.9-2.7-1.8C47.4,28.6,48.8,28.3,49.7,28.5"/>
	<path class="st0" d="M26.3,53.2c-0.4-1.5-1.5-1.6-2.9-1.7c0.2,0.7,0.5,1.1,1.1,1.4C24.9,53.2,25.6,53.2,26.3,53.2"/>
	<path class="st0" d="M55.5,38.9c0-1.4-1.2-2-2.3-2.2C52.9,38.1,54.3,38.7,55.5,38.9"/>
	<path class="st0" d="M21.5,36.1c-1,1.2,0.2,2.7,0.7,2.6c0.7-0.1,0.4-1.5,0.3-1.7C22.4,36.6,22,36.4,21.5,36.1"/>
	<path class="st0" d="M23.1,38.8c1.5-0.1,2.2-0.6,2.4-2.1C23.9,37,23.3,37.5,23.1,38.8"/>
	<path class="st0" d="M55,35.4c0.5-0.2,0.8-0.3,1.1-0.9c0.2-0.5,0.2-1.1,0-1.7C54.8,33.1,54.3,34.2,55,35.4"/>
	<path class="st0" d="M22.4,46.1c0-0.9,0-1.1-0.6-1.6c-0.4-0.4-0.8-0.5-1.5-0.6C20.4,45.4,21,46,22.4,46.1"/>
	<path class="st0" d="M53.2,33c-0.2-1.1-1.4-1.6-2.9-1.4c0.2,0.7,0.5,0.9,1,1.2C51.9,33.1,52.4,33.1,53.2,33"/>
	<path class="st0" d="M25.4,32.8c0.9,0.1,1.9,0,2.5-0.5c0.4-0.4,0.3-0.3,0.4-0.9C26.8,31.4,25.5,31.6,25.4,32.8"/>
	<path class="st0" d="M22.6,32.7c-0.2,0.7-0.4,1.1,0,1.8c0.4,0.7,0.6,0.7,1.1,0.9C24.2,34.2,23.8,32.9,22.6,32.7"/>
	<path class="st0" d="M56.1,38.8c1.3-0.5,1.4-1.5,1-2.8C55.8,36.6,55.4,37.4,56.1,38.8"/>
	<path class="st0" d="M56.3,42.4c1.4-0.4,2.1-0.7,2.2-2.2C57,40.4,56.4,40.8,56.3,42.4"/>
	<path class="st0" d="M51.3,26.9c-0.5,0.7-0.7,1-0.6,1.7c0.1,0.7,0.3,0.9,0.8,1.2C52.2,28.4,52.4,27.7,51.3,26.9"/>
	<path class="st0" d="M21.6,48.1c0,0-0.2,0.8,0.6,1.4c0.5,0.4,1,0.4,1.7,0.5C23.7,48.8,23,47.7,21.6,48.1"/>
	<path class="st0" d="M54.7,49.8c0.7,0,1.1,0,1.6-0.5c0.5-0.4,0.6-0.7,0.7-1.5C55.7,48,54.7,48.5,54.7,49.8"/>
	<path class="st0" d="M53.7,32.7c0.3-0.4,0.5-0.8,0.5-1.5c-0.1-1.1-0.7-1.1-1-1.3C53.1,30.5,52.3,31.9,53.7,32.7"/>
	<path class="st0" d="M54.6,35.7c-0.5-1.4-0.9-1.7-2.6-1.8C52.2,35.4,53,35.8,54.6,35.7"/>
	<path class="st0" d="M22.3,42.3c-0.2-1.5-0.7-1.9-2.2-2.1C20.4,41.6,20.8,42.3,22.3,42.3"/>
	<path class="st0" d="M29.9,55.8c0.1,1.6,0.5,2,1.8,2.5C31.9,56.8,31.2,56,29.9,55.8"/>
	<path class="st0" d="M26.9,29.8c0.9-0.1,0.8-0.7,1.3-0.8c0.1-0.9,0.2-0.9,0-1.6c-0.2,0-0.7-0.1-1.2,0.8
		C26.6,28.7,26.7,29.3,26.9,29.8"/>
	<path class="st0" d="M23.9,35.7c1.1,0,1.9-0.3,2.3-0.9c0.4-0.5,0.2-0.3,0.3-0.9C25.3,34.1,24.2,34.4,23.9,35.7"/>
	<path class="st0" d="M56.1,46c1,0,1.1-0.1,1.6-0.7c0.4-0.5,0.4-0.8,0.5-1.5C56.9,43.9,56.2,44.6,56.1,46"/>
	<path class="st0" d="M25.9,54.6c0,0,0,0.1,0,0.1c0.3,1.1,2,1.1,2.5,0.9c0.5-0.1,0.2-0.1,0.4-0.3C28.4,54.6,27.2,54.1,25.9,54.6"/>
	<path class="st0" d="M29.2,55.1c0.1-0.2,0.2-0.2,0.2-0.8c0-0.3-0.1-0.6-0.2-0.8c-0.2-0.5-0.7-0.8-1.1-0.9c-0.4,0.7-0.4,1-0.1,1.5
		C28.6,55.3,29.2,55.1,29.2,55.1"/>
	<path class="st0" d="M25,32.4c0,0,0.1,0,0.1,0c0.6-0.2,0.9-1.4,0.3-2.3l-0.2-0.2c-0.9,0.7-1.1,1.8-0.5,2.6H25z"/>
	<path class="st0" d="M29,28.4c1.6-0.1,2.3-0.4,2.6-1.8C30.1,26.7,29.4,27.1,29,28.4"/>
	<path class="st0" d="M50.2,52.6c-1.6,0.4-1.5,2.5-0.9,2.6c0.4,0,0.8-0.6,1-1C50.5,53.6,50.3,53.1,50.2,52.6"/>
	<path class="st0" d="M49.6,55.6c0.6,0,1.5,0.1,2.1,0l0.7-0.3l0.4-0.6c-0.2-0.1-0.1-0.1-0.4-0.2C51.9,54.3,49.7,54.3,49.6,55.6"/>
	<path class="st0" d="M54.4,43.7c-0.5,1,0,1.8,0.7,2.2C56.2,46.6,55.9,43.8,54.4,43.7"/>
	<path class="st0" d="M26.1,50.3c-0.4,0.8-0.9,2.3,0.7,2.5c0.1-0.5,0.3-0.9,0.2-1.6C26.8,50.6,26.5,50.5,26.1,50.3"/>
	<path class="st0" d="M24.3,49.6c0.6-0.1,0.9-0.3,1.1-0.8c0.2-0.5,0.1-1.1-0.1-1.6C24.4,47.5,23.9,48.4,24.3,49.6"/>
	<path class="st0" d="M48,29.7c0.5,0.7,1.6,0.8,2.2,0.7c0.9-0.3,0.4-0.2,0.6-0.5c-0.3-0.4,0-0.3-0.6-0.5S48.5,29.3,48,29.7"/>
	<path class="st0" d="M27.4,30.1c1.1,0.2,2.3,0.2,2.8-0.8C29.1,28.8,27.8,28.9,27.4,30.1"/>
	<path class="st0" d="M53.2,48.8c0.2,0.5,0.4,0.7,1.1,0.9c0.4-1.3,0.1-1.9-0.9-2.4C53,47.8,52.9,48,53.2,48.8"/>
	<path class="st0" d="M22.9,46c0.9-0.2,0.6-0.2,1.2-0.8l0.2-0.8l-0.2-0.7C22.7,43.7,22.6,45,22.9,46"/>
	<path class="st0" d="M55.8,42.4c0-0.8,0-1.1-0.4-1.6c-0.4-0.5-0.7-0.7-1.2-0.5C54.2,41.6,54.8,42.1,55.8,42.4"/>
	<path class="st0" d="M22.5,42.2c0.6,0.1,0.9,0.1,1.3-0.3c0.5-0.4,0.5-0.7,0.7-1.5C23.3,40.5,22.7,41,22.5,42.2"/>
	<path class="st0" d="M52,52.8c0.7-0.1,0,0.1,0.4-0.1c1.1-0.5-0.2,0.4,0.4-0.2c0.4-0.5,0.2-1.4-0.1-1.9C51.4,50.5,51.7,51.8,52,52.8
		"/>
	<path class="st0" d="M48.5,55.8c2.6-2,4.5-4.2,5.7-6.5c1.2-2.3,1.7-4.8,1.5-7.4l0,0c-0.2-2.8-0.8-5.3-1.9-7.5
		c-1.1-2.2-2.6-4.1-4.5-5.8l-0.7-0.5l0.4-0.2l0.1-0.4l0.7,0.5c2,1.7,3.5,3.7,4.6,6c1.1,2.3,1.8,4.9,1.9,7.8l0,0
		c0.2,2.7-0.4,5.3-1.6,7.8c-1.2,2.4-3.2,4.6-5.9,6.7l-0.3,0.2l-0.2-0.2L48.5,55.8z"/>
	<path class="st0" d="M30.1,55.9c-2.6-2-4.5-4.2-5.7-6.5c-1.2-2.3-1.7-4.8-1.5-7.4l0,0c0.2-2.8,0.8-5.3,1.9-7.5s2.6-4.1,4.5-5.8
		l0.7-0.4l-0.4-0.2l-0.1-0.4l-0.7,0.5c-2,1.7-3.5,3.7-4.6,6s-1.8,4.9-1.9,7.8l0,0c-0.2,2.7,0.4,5.3,1.6,7.8c1.2,2.4,3.2,4.6,5.9,6.7
		l0.3,0.2l0.2-0.2L30.1,55.9z"/>
	<path class="st0" d="M63.9,31L63,29.6l4.5-2.9l-3.7,0.5l-0.4-0.7l1.9-3l-4.4,2.8L60,25l0.8-0.5l0.4,0.5l4.4-2.8l-0.4-0.5l0.8-0.5
		l1,1.5l-2.2,3.5l4.1-0.7l1,1.6l-0.8,0.5l-0.4-0.5L64.4,30l0.4,0.5L63.9,31z M62.5,18.8l-0.7-0.6c-0.2-0.2-0.4-0.3-0.5-0.3
		c-0.1,0-0.3,0.1-0.5,0.3L58.1,21c-0.2,0.2-0.3,0.4-0.3,0.5c0,0.1,0.1,0.3,0.2,0.4l0.8,0.7c0.1,0.1,0.2,0.2,0.4,0.2s0.2,0,0.3,0
		c0.1,0,0.2-0.1,0.4-0.3l2.7-2.8c0.2-0.2,0.3-0.4,0.3-0.5C62.8,19.1,62.6,18.9,62.5,18.8z M63.5,20.4l-3,3.2
		c-0.2,0.3-0.5,0.4-0.9,0.4c-0.4,0-0.7-0.1-1-0.4l-1.3-1.2c-0.3-0.3-0.5-0.7-0.5-1c0-0.3,0.2-0.7,0.4-1l2.9-3.1
		c0.2-0.2,0.4-0.4,0.5-0.4c0.2-0.1,0.4-0.1,0.5-0.1c0.4,0,0.7,0.1,1.1,0.4l1.2,1.2c0.4,0.3,0.5,0.7,0.4,1.1
		C63.9,19.8,63.7,20.1,63.5,20.4z M54.2,20l-1.9-1.2l0.5-0.8l0.5,0.4l2.8-4.4l-0.9-0.5l-0.6,0.9l-0.9-0.6l1.1-1.7l4.5,2.9l-1.1,1.7
		l-0.9-0.6l0.6-0.9L57,14.5l-2.8,4.4l0.5,0.3L54.2,20z M49.1,17.3l-2.2-0.7l0.3-0.9l0.6,0.2l1.7-4.9l-1-0.4l-0.4,1l-1-0.4l0.7-1.9
		l5,1.7l-0.7,1.9l-1-0.4l0.4-1l-0.9-0.4l-1.7,4.9l0.5,0.2L49.1,17.3z M43.5,9.6l-0.9-0.1c-0.3,0-0.5,0-0.6,0.1
		c-0.1,0.1-0.2,0.3-0.2,0.5l-0.5,3.8c0,0.3,0,0.5,0.1,0.6c0.1,0.1,0.2,0.2,0.4,0.2l1.1,0.1c0.2,0,0.4,0,0.4,0c0.1,0,0.2-0.1,0.2-0.2
		c0-0.1,0.1-0.2,0.1-0.4l0.5-3.8c0-0.3,0-0.5-0.1-0.6C43.9,9.6,43.8,9.6,43.5,9.6z M45.3,10.3l-0.6,4.4c0,0.4-0.2,0.7-0.5,0.9
		s-0.6,0.4-1.1,0.3l-1.8-0.2c-0.4-0.1-0.7-0.2-0.9-0.5c-0.2-0.3-0.3-0.7-0.2-1.1l0.5-4.2c0-0.3,0.1-0.5,0.2-0.7s0.2-0.3,0.4-0.4
		c0.3-0.2,0.7-0.3,1.1-0.3L44,8.7c0.4,0.1,0.8,0.3,1,0.6C45.3,9.6,45.3,9.9,45.3,10.3z M35.2,11.5l1.4-0.2c0.2,0,0.4-0.1,0.4-0.1
		c0.1-0.1,0.2-0.2,0.2-0.3c0-0.1,0-0.3,0-0.5L37.2,10c0-0.3-0.1-0.4-0.3-0.5c-0.1-0.1-0.2-0.1-0.3-0.1c-0.1,0-0.2,0-0.3,0l-1.3,0.2
		L35.2,11.5z M35.6,14.8l1.3-0.2c0.3,0,0.5-0.1,0.6-0.2s0.2-0.3,0.1-0.6L37.5,13c0-0.2-0.1-0.4-0.1-0.4c-0.1-0.1-0.2-0.2-0.4-0.2
		c-0.1,0-0.2,0-0.4,0l-1.2,0.2L35.6,14.8z M34.1,16L33.9,15l0.6-0.1l-0.7-5.2l-0.5,0.1l-0.1-0.9l3.4-0.4c0.4,0,0.6,0,0.8,0
		c0.5,0.2,0.8,0.6,0.9,1.1l0.1,0.8c0.1,0.6-0.1,1-0.7,1.3c0.3,0.1,0.5,0.2,0.7,0.4c0.2,0.2,0.2,0.5,0.3,0.8l0.1,0.8
		c0,0.4,0,0.7-0.1,0.9c-0.1,0.3-0.3,0.5-0.5,0.6s-0.5,0.2-0.9,0.3L34.1,16z M30.4,17l-1.5,0.7l-1-2.2c-0.1-0.2-0.2-0.4-0.3-0.4
		c-0.1-0.1-0.3-0.1-0.5,0.1L26,15.7l1.2,2.8l-1.5,0.7l-0.4-0.9l0.5-0.2l-2.2-4.8l-0.5,0.2l-0.4-0.8l1.5-0.7l1.3,2.9l0.4-3.7l1.3-0.6
		l0.4,0.8L27,11.8l-0.4,2.6l0.7-0.3c0.4-0.2,0.7-0.2,0.9,0c0.2,0.1,0.4,0.4,0.5,0.7l0.8,1.7l0.5-0.2L30.4,17z M24.9,19.7l-2.2,1.8
		c-0.4,0.3-0.7,0.4-1.1,0.3s-0.7-0.3-0.9-0.6l-2.6-3.4c-0.2-0.3-0.4-0.7-0.4-1c0-0.4,0.2-0.7,0.6-1l2.1-1.6l1.4,1.8L21,16.5l-0.7-1
		l-1,0.7c-0.2,0.2-0.4,0.4-0.4,0.5c0,0.1,0,0.3,0.2,0.5l2.5,3.1c0.1,0.2,0.3,0.3,0.4,0.3c0.1,0,0.2,0,0.2,0c0.1,0,0.1-0.1,0.3-0.2
		l1.1-0.8l-0.8-1l0.8-0.7L24.9,19.7z M15,20.2l-0.6,0.7c-0.2,0.2-0.2,0.4-0.2,0.5c0,0.1,0.1,0.3,0.4,0.5l2.9,2.5
		c0.2,0.2,0.4,0.3,0.5,0.3s0.3-0.1,0.4-0.2l0.7-0.8c0.1-0.1,0.2-0.3,0.2-0.4c0-0.1,0-0.2-0.1-0.3c0-0.1-0.1-0.2-0.3-0.3L16,20.2
		C15.8,20,15.6,20,15.5,20C15.3,19.9,15.2,20,15,20.2z M16.6,19.2l3.4,2.9c0.3,0.2,0.4,0.5,0.5,0.9s-0.1,0.7-0.4,1l-1.2,1.4
		c-0.3,0.4-0.6,0.5-0.9,0.5c-0.4,0-0.7-0.1-1-0.4l-3.2-2.8c-0.2-0.2-0.4-0.4-0.4-0.5c-0.1-0.2-0.1-0.4-0.2-0.5
		c0-0.4,0.1-0.7,0.4-1.1l1.1-1.3c0.3-0.4,0.7-0.5,1.1-0.5C15.9,18.8,16.3,18.9,16.6,19.2z M12,28.5l0.5-1.1c0.1-0.2,0.2-0.4,0.1-0.5
		c0-0.2-0.1-0.3-0.4-0.4l-0.7-0.4C11.4,26,11.2,25.9,11,26c-0.1,0-0.3,0.2-0.4,0.4l-0.5,1.1L12,28.5z M17.3,27l-0.8,1.5l-2.1-1.1
		c-0.2-0.1-0.4-0.1-0.5-0.1c-0.1,0-0.3,0.2-0.4,0.4l-0.6,1.1l2.7,1.4l-0.8,1.5L14,31.4l0.3-0.5l-4.6-2.4L9.3,29l-0.8-0.4l1.5-2.9
		c0.5-0.9,1.1-1.1,2.1-0.6l0.6,0.3c0.4,0.2,0.7,0.4,0.8,0.7c0.1,0.1,0.1,0.4,0.1,0.5c0.1-0.2,0.2-0.3,0.4-0.4
		c0.1-0.1,0.3-0.1,0.4-0.1c0.1,0,0.3,0,0.4,0.1l1.5,0.8l0.3-0.5L17.3,27z"/>
	<path class="st0" d="M58.8,68.6l-1.6,1.2l-0.5-0.7l0.4-0.3l-1.2-1.6l-2.8-1.3l-0.4,0.3l-0.5-0.7l0.9-0.7l2.6,1.4l-0.5-2.9l0.9-0.7
		l0.5,0.7l-0.4,0.3l0.4,3l1.2,1.6l0.4-0.3L58.8,68.6z M50.1,69.4L51,69c0.2-0.1,0.3-0.2,0.4-0.3c0.1-0.1,0.1-0.3,0-0.5l-0.3-0.6
		c-0.1-0.3-0.2-0.4-0.4-0.5c-0.1-0.1-0.3,0-0.5,0.1l-1,0.4L50.1,69.4z M54.6,71.3L53.2,72L52.3,70c-0.1-0.2-0.2-0.4-0.3-0.4
		c-0.1,0-0.3,0-0.5,0.1l-1.1,0.5l1.1,2.5l-1.4,0.7l-0.4-0.8l0.5-0.2l-1.9-4.3l-0.5,0.2l-0.4-0.8l2.7-1.2c0.8-0.4,1.4-0.1,1.8,0.7
		l0.2,0.5c0.2,0.4,0.2,0.7,0.2,0.9c0,0.1-0.1,0.3-0.2,0.4c0.2,0,0.4,0,0.5,0c0.1,0,0.2,0.1,0.3,0.2c0.1,0.1,0.2,0.2,0.2,0.4l0.6,1.4
		l0.5-0.2L54.6,71.3z M48.4,73.7l-4.2,1L44,73.9l0.5-0.1l-1.1-4.5l-0.5,0.1l-0.2-0.8l4.1-1l0.4,1.9l-0.9,0.2l-0.2-1.1l-1.7,0.4
		l0.4,1.8l1.8-0.4l0.2,0.8L45,71.7l0.4,1.9l1.7-0.4l-0.3-1.1l0.9-0.2L48.4,73.7z M41.2,75.1l-0.9,0l-1.1-5l-1.4,4.9l-1,0L36,69.3
		l-0.5,0l0-0.8l1.4,0l0.6,4.5l1.2-4.4l1,0l1,4.3l0.9-4.2l1.4,0l0,0.8l-0.5,0L41.2,75.1z M33.6,74.5l-4.2-1l0.2-0.8l0.5,0.1l1.1-4.5
		l-0.5-0.1l0.2-0.8l4.1,0.9l-0.4,1.9L33.6,70l0.2-1.1l-1.7-0.4l-0.4,1.8l1.8,0.4l-0.2,0.8l-1.8-0.4l-0.4,1.9l1.7,0.4l0.3-1.1
		l0.9,0.2L33.6,74.5z M26.4,68.4l0.9,0.4c0.2,0.1,0.4,0.1,0.5,0.1s0.3-0.1,0.4-0.4l0.3-0.6c0.1-0.3,0.1-0.4,0.1-0.6
		c0-0.1-0.2-0.2-0.4-0.4l-1-0.4L26.4,68.4z M28,73l-1.4-0.7l0.9-1.9c0.1-0.2,0.1-0.4,0.1-0.5c0-0.1-0.2-0.2-0.4-0.4l-1.1-0.5
		L25,71.5l-1.4-0.7l0.4-0.8l0.5,0.2l1.9-4.3l-0.5-0.2l0.4-0.8l2.6,1.2c0.8,0.4,1,1,0.7,1.8l-0.2,0.5c-0.2,0.4-0.4,0.6-0.6,0.7
		c-0.1,0.1-0.3,0.1-0.5,0.1c0.1,0.1,0.2,0.2,0.3,0.4c0.1,0.1,0.1,0.2,0.1,0.4c0,0.1,0,0.2-0.1,0.4l-0.7,1.4l0.5,0.2L28,73z
		 M21.8,65.2l1,0.7c0.1,0.1,0.2,0.2,0.3,0.2c0.1,0,0.2,0,0.3,0s0.2-0.1,0.3-0.3l0.3-0.4c0.1-0.2,0.2-0.4,0.2-0.5
		c0-0.1-0.1-0.2-0.1-0.2s-0.1-0.1-0.2-0.2l-0.9-0.7L21.8,65.2z M20,67.6l0.9,0.7c0.2,0.1,0.4,0.2,0.5,0.2c0.2,0,0.3-0.1,0.5-0.3
		l0.4-0.6c0.1-0.2,0.2-0.3,0.2-0.4c0-0.2,0-0.3-0.1-0.4c0,0-0.1-0.1-0.3-0.2l-0.9-0.7L20,67.6z M18.3,67.4l0.5-0.7l0.4,0.3l2.8-3.7
		L21.6,63l0.5-0.7l2.5,1.8c0.2,0.2,0.4,0.4,0.5,0.5c0.2,0.5,0.2,0.9-0.1,1.2l-0.4,0.6c-0.3,0.4-0.7,0.6-1.2,0.5
		c0.1,0.2,0.2,0.4,0.2,0.7c0,0.2-0.1,0.5-0.4,0.7l-0.4,0.6c-0.2,0.3-0.4,0.5-0.6,0.6c-0.2,0.1-0.5,0.1-0.7,0.1
		c-0.2,0-0.4-0.2-0.7-0.4L18.3,67.4z"/>
</g>
</svg>
